<svg width="141" height="54" viewBox="0 0 141 54" fill="none" xmlns="http://www.w3.org/2000/svg">
<path d="M14.4977 43.4131C12.5936 43.4131 10.7979 43.0515 9.11077 42.3284C7.42359 41.6054 5.95333 40.6172 4.7 39.3638C3.44667 38.1105 2.45846 36.6402 1.73538 34.9531C1.01231 33.2659 0.650769 31.4702 0.650769 29.5661C0.650769 27.6379 1.01231 25.8423 1.73538 24.1792C2.45846 22.492 3.44667 21.0218 4.7 19.7684C5.95333 18.491 7.42359 17.4908 9.11077 16.7677C10.7979 16.0446 12.5936 15.6831 14.4977 15.6831C16.0644 15.6831 17.4985 15.9361 18.8 16.4423C20.1015 16.9243 21.4392 17.7197 22.8131 18.8284C23.2228 19.1659 23.5362 19.5636 23.7531 20.0215C23.9941 20.4554 24.1387 20.9133 24.1869 21.3954C24.2592 21.8774 24.2231 22.3715 24.0785 22.8777C23.9579 23.3597 23.729 23.8056 23.3915 24.2154C23.0059 24.6974 22.548 25.059 22.0177 25.3C21.5115 25.5169 20.9813 25.6254 20.4269 25.6254C19.511 25.6254 18.7036 25.3361 18.0046 24.7577C17.5949 24.4202 17.2213 24.1551 16.8838 23.9623C16.5705 23.7695 16.2813 23.6249 16.0162 23.5284C15.751 23.432 15.4979 23.3718 15.2569 23.3477C15.0159 23.3236 14.7628 23.3115 14.4977 23.3115C13.63 23.3115 12.8226 23.4802 12.0754 23.8177C11.3282 24.131 10.6654 24.5769 10.0869 25.1554C9.53256 25.7097 9.08667 26.3726 8.74923 27.1438C8.4359 27.891 8.27923 28.6984 8.27923 29.5661C8.27923 30.4338 8.4359 31.2413 8.74923 31.9884C9.08667 32.7356 9.53256 33.3984 10.0869 33.9769C10.6654 34.5313 11.3282 34.9772 12.0754 35.3146C12.8226 35.6279 13.63 35.7846 14.4977 35.7846C14.9315 35.7846 15.3051 35.7605 15.6185 35.7123C15.9318 35.6641 16.221 35.5797 16.4862 35.4592C16.7513 35.3146 17.0164 35.1338 17.2815 34.9169C17.5467 34.6759 17.8359 34.3746 18.1492 34.0131C18.8723 33.2177 19.7521 32.7838 20.7885 32.7115C21.2946 32.6633 21.7767 32.7236 22.2346 32.8923C22.7167 33.061 23.1505 33.3141 23.5362 33.6515C23.9459 34.0131 24.2472 34.4228 24.44 34.8808C24.6569 35.3146 24.7774 35.7846 24.8015 36.2908C24.8497 36.7728 24.7895 37.2549 24.6208 37.7369C24.4762 38.1949 24.2351 38.6287 23.8977 39.0384C23.2228 39.7856 22.5479 40.4364 21.8731 40.9908C21.1982 41.5451 20.4872 42.0031 19.74 42.3646C18.9928 42.7261 18.1854 42.9913 17.3177 43.16C16.4741 43.3287 15.5341 43.4131 14.4977 43.4131ZM42.3743 23.4923C42.8804 23.4923 43.3504 23.5887 43.7843 23.7815C44.2422 23.9743 44.6279 24.2395 44.9412 24.5769C45.2786 24.8902 45.5438 25.2638 45.7366 25.6977C45.9294 26.1315 46.0258 26.6015 46.0258 27.1077V39.87C46.0258 40.3761 45.9294 40.8461 45.7366 41.28C45.5438 41.7138 45.2786 42.0995 44.9412 42.4369C44.6279 42.7502 44.2422 43.0033 43.7843 43.1961C43.3504 43.389 42.8804 43.4854 42.3743 43.4854C41.4825 43.4854 40.7233 43.2082 40.0966 42.6538C38.7951 43.2082 37.4694 43.4854 36.1197 43.4854C34.7699 43.4854 33.4925 43.2323 32.2874 42.7261C31.0822 42.1959 30.0338 41.4849 29.142 40.5931C28.2502 39.7013 27.5392 38.6528 27.0089 37.4477C26.5027 36.2426 26.2497 34.9651 26.2497 33.6154C26.2497 32.2415 26.5027 30.9641 27.0089 29.7831C27.5392 28.5779 28.2502 27.5295 29.142 26.6377C30.0338 25.7218 31.0822 25.0108 32.2874 24.5046C33.4925 23.9743 34.7699 23.7092 36.1197 23.7092C37.4694 23.7092 38.7348 23.9623 39.9158 24.4684C40.6148 23.8177 41.4343 23.4923 42.3743 23.4923ZM36.1197 36.2184C36.8427 36.2184 37.4574 35.9654 37.9635 35.4592C38.4938 34.9531 38.7589 34.3384 38.7589 33.6154C38.7589 33.061 38.6384 32.6151 38.3974 32.2777C38.1804 31.9402 37.9274 31.6751 37.6381 31.4823C37.3489 31.2895 37.0597 31.1569 36.7704 31.0846C36.4812 31.0123 36.2643 30.9761 36.1197 30.9761C35.3966 30.9761 34.782 31.2413 34.2758 31.7715C33.7697 32.2777 33.5166 32.8923 33.5166 33.6154C33.5166 34.3384 33.7697 34.9531 34.2758 35.4592C34.782 35.9654 35.3966 36.2184 36.1197 36.2184ZM65.4548 26.7461C66.0815 27.4933 66.3587 28.3731 66.2864 29.3854C66.2141 30.3977 65.7923 31.2292 65.021 31.88C64.2738 32.5067 63.3941 32.7838 62.3818 32.7115C61.8997 32.6633 61.4418 32.5428 61.0079 32.35C60.5982 32.1331 60.2366 31.8318 59.9233 31.4461C59.6341 31.1328 59.2846 30.9761 58.8748 30.9761C58.1518 30.9761 57.5372 31.2413 57.031 31.7715C56.5248 32.2777 56.2718 32.8923 56.2718 33.6154V39.87C56.2718 40.3761 56.1754 40.8461 55.9825 41.28C55.7897 41.7138 55.5246 42.0995 55.1872 42.4369C54.8738 42.7502 54.4882 43.0033 54.0302 43.1961C53.5964 43.389 53.1264 43.4854 52.6202 43.4854C51.6079 43.4854 50.7523 43.1359 50.0533 42.4369C49.3543 41.7379 49.0048 40.8823 49.0048 39.87V27.3608C49.0048 26.8546 49.1013 26.3846 49.2941 25.9508C49.4869 25.4928 49.74 25.1072 50.0533 24.7938C50.3907 24.4564 50.7764 24.1913 51.2102 23.9984C51.6441 23.8056 52.1141 23.7092 52.6202 23.7092C53.0541 23.7092 53.4638 23.7815 53.8495 23.9261C54.2351 24.0708 54.5966 24.2756 54.9341 24.5408C56.1874 23.9864 57.501 23.7092 58.8748 23.7092C60.1764 23.7092 61.3815 23.9743 62.4902 24.5046C63.6231 25.0108 64.6113 25.7579 65.4548 26.7461ZM85.4225 32.0246C85.4225 32.4102 85.3261 32.8079 85.1333 33.2177C84.9646 33.6274 84.6753 34.001 84.2656 34.3384C83.8558 34.6759 83.3256 34.9531 82.6748 35.17C82.0481 35.3628 81.2648 35.4592 80.3248 35.4592H75.6971C75.7453 35.6038 75.8297 35.7243 75.9502 35.8208C76.0707 35.9413 76.2394 36.0377 76.4564 36.11C76.6733 36.1823 76.9505 36.2184 77.2879 36.2184C77.9628 36.2184 78.6858 36.1943 79.4571 36.1461C80.2284 36.0979 80.9394 36.122 81.5902 36.2184C82.241 36.3149 82.7712 36.5438 83.181 36.9054C83.6148 37.2669 83.8317 37.8574 83.8317 38.6769C83.8317 38.9902 83.7715 39.4241 83.651 39.9784C83.5305 40.5087 83.2412 41.039 82.7833 41.5692C82.3253 42.0754 81.6625 42.5213 80.7948 42.9069C79.9512 43.2926 78.7823 43.4854 77.2879 43.4854C75.5525 43.4854 74.0581 43.2082 72.8048 42.6538C71.5756 42.0754 70.5633 41.3402 69.7679 40.4484C68.9725 39.5326 68.382 38.5082 67.9964 37.3754C67.6107 36.2426 67.4179 35.1218 67.4179 34.0131C67.4179 32.6874 67.5987 31.5184 67.9602 30.5061C68.3217 29.4938 68.7917 28.6141 69.3702 27.8669C69.9487 27.0956 70.5994 26.4449 71.3225 25.9146C72.0697 25.3843 72.8048 24.9626 73.5279 24.6492C74.251 24.3118 74.9379 24.0708 75.5887 23.9261C76.2635 23.7815 76.8299 23.7092 77.2879 23.7092C77.8905 23.7092 78.6497 23.8177 79.5656 24.0346C80.4815 24.2515 81.3733 24.6613 82.241 25.2638C83.1087 25.8664 83.8558 26.71 84.4825 27.7946C85.1092 28.8792 85.4225 30.2892 85.4225 32.0246ZM79.7102 31.8438C79.6861 31.4341 79.5776 31.0726 79.3848 30.7592C79.2402 30.4941 79.0112 30.2531 78.6979 30.0361C78.4087 29.8192 77.9869 29.7108 77.4325 29.7108C76.854 29.7108 76.4081 29.8192 76.0948 30.0361C75.7815 30.2531 75.5646 30.4941 75.444 30.7592C75.2753 31.0726 75.1789 31.4341 75.1548 31.8438H79.7102ZM100.609 15.6831C102.898 15.7313 104.899 16.1651 106.61 16.9846C108.321 17.8041 109.743 18.8646 110.876 20.1661C112.033 21.4436 112.889 22.9018 113.443 24.5408C114.022 26.1797 114.311 27.8549 114.311 29.5661C114.311 31.2774 114.022 32.9526 113.443 34.5915C112.889 36.2305 112.033 37.7008 110.876 39.0023C109.743 40.2797 108.321 41.3282 106.61 42.1477C104.899 42.9431 102.898 43.3649 100.609 43.4131C98.3188 43.3408 96.3062 42.8949 94.5708 42.0754C92.8595 41.2559 91.4254 40.2074 90.2685 38.93C89.1357 37.6284 88.2801 36.1582 87.7016 34.5192C87.1472 32.8802 86.8701 31.2051 86.8701 29.4938C86.8701 27.8067 87.1593 26.1556 87.7378 24.5408C88.3162 22.9018 89.1719 21.4436 90.3047 20.1661C91.4616 18.8887 92.8957 17.8402 94.607 17.0208C96.3183 16.2013 98.3188 15.7554 100.609 15.6831ZM106.863 29.5661C106.863 28.5538 106.682 27.662 106.321 26.8908C105.959 26.1195 105.477 25.4808 104.875 24.9746C104.296 24.4443 103.633 24.0587 102.886 23.8177C102.139 23.5526 101.38 23.42 100.609 23.42C99.8372 23.42 99.078 23.5526 98.3308 23.8177C97.5836 24.0587 96.9088 24.4443 96.3062 24.9746C95.7278 25.4808 95.2578 26.1195 94.8962 26.8908C94.5347 27.662 94.3539 28.5538 94.3539 29.5661C94.378 30.5784 94.5708 31.4702 94.9324 32.2415C95.2939 33.0128 95.7639 33.6636 96.3424 34.1938C96.9449 34.7 97.6078 35.0856 98.3308 35.3508C99.078 35.5918 99.8372 35.7123 100.609 35.7123C101.38 35.7123 102.139 35.5918 102.886 35.3508C103.633 35.0856 104.296 34.7 104.875 34.1938C105.453 33.6636 105.923 33.0128 106.285 32.2415C106.646 31.4702 106.839 30.5784 106.863 29.5661ZM134.371 15.8277C134.829 15.8277 135.275 15.912 135.709 16.0808C136.142 16.2254 136.54 16.4664 136.902 16.8038C137.263 17.1172 137.552 17.5028 137.769 17.9608C138.01 18.4187 138.143 18.961 138.167 19.5877V39.6169C138.167 40.2677 138.047 40.8341 137.805 41.3161C137.589 41.7982 137.299 42.1959 136.938 42.5092C136.576 42.8226 136.191 43.0636 135.781 43.2323C135.371 43.3769 134.985 43.4492 134.624 43.4492C133.636 43.4492 132.852 43.2443 132.274 42.8346C131.695 42.4249 131.298 42.0031 131.081 41.5692L124.356 31.3738V39.6531C124.356 40.1833 124.248 40.6774 124.031 41.1354C123.838 41.5933 123.561 41.991 123.199 42.3284C122.862 42.6659 122.464 42.9431 122.006 43.16C121.548 43.3528 121.054 43.4492 120.524 43.4492C119.994 43.4492 119.5 43.3528 119.042 43.16C118.584 42.9431 118.186 42.6659 117.849 42.3284C117.511 41.991 117.234 41.5933 117.017 41.1354C116.824 40.6774 116.728 40.1833 116.728 39.6531V19.6238C116.728 19.0454 116.836 18.5272 117.053 18.0692C117.27 17.5872 117.547 17.1895 117.885 16.8761C118.246 16.5387 118.644 16.2856 119.078 16.1169C119.536 15.9241 119.982 15.8277 120.415 15.8277C121.259 15.8277 121.97 16.0205 122.549 16.4061C123.127 16.7918 123.549 17.2136 123.814 17.6715L130.539 28.9154V19.5877C130.563 18.961 130.683 18.4187 130.9 17.9608C131.141 17.5028 131.442 17.1172 131.804 16.8038C132.165 16.4664 132.563 16.2254 132.997 16.0808C133.455 15.912 133.913 15.8277 134.371 15.8277Z" fill="#24C898"/>
<path d="M103.262 10.2198C101.399 10.606 101.897 14.7572 102.443 16.2697H98.3489C99.4406 12.1558 98.3489 10.4867 96.9843 10.2198C89.5608 8.76786 87.8869 3.36333 87.9778 0.842554C93.4363 -0.669908 97.5302 5.37995 98.8948 7.79989C99.9865 9.73585 101.169 8.60654 101.624 7.79989C104.899 0.782055 109.903 0.237568 111.995 0.842554C112.868 6.16643 106.051 9.64149 103.262 10.2198Z" fill="#24C898" stroke="#24C898" stroke-width="1.20513" stroke-linejoin="round"/>
</svg>
